<svg width="50" height="50" viewBox="0 0 50 50" fill="none" xmlns="http://www.w3.org/2000/svg">
<path d="M33.3333 45.8333V37.7708C33.4115 36.7774 33.2773 35.7788 32.9396 34.8412C32.602 33.9037 32.0686 33.0488 31.375 32.3333C37.9167 31.6042 44.7917 29.125 44.7917 17.75C44.7911 14.8413 43.6723 12.0442 41.6667 9.9375C42.6164 7.39272 42.5492 4.57989 41.4792 2.08333C41.4792 2.08333 39.0208 1.35416 33.3333 5.16666C28.5584 3.87254 23.525 3.87254 18.75 5.16666C13.0625 1.35416 10.6042 2.08333 10.6042 2.08333C9.53412 4.57989 9.46697 7.39272 10.4167 9.9375C8.3961 12.0598 7.27609 14.8822 7.29167 17.8125C7.29167 29.1042 14.1667 31.5833 20.7083 32.3958C20.0229 33.1041 19.4943 33.9488 19.1569 34.8748C18.8195 35.8009 18.6809 36.7876 18.75 37.7708V45.8333M18.75 39.5833C8.33334 42.7083 8.33334 34.375 4.16667 33.3333L18.75 39.5833Z" stroke="#EFEBD5" stroke-width="2" stroke-linecap="round" stroke-linejoin="round"/>
</svg>
